<?xml version="1.0" encoding="UTF-8" standalone="no"?>
<!-- Created with Inkscape (http://www.inkscape.org/) -->

<svg
   width="630"
   height="500"
   viewBox="0 0 166.6875 132.29167"
   version="1.1"
   id="svg5"
   inkscape:version="1.1.2 (0a00cf5339, 2022-02-04)"
   sodipodi:docname="title_pizza.svg"
   xmlns:inkscape="http://www.inkscape.org/namespaces/inkscape"
   xmlns:sodipodi="http://sodipodi.sourceforge.net/DTD/sodipodi-0.dtd"
   xmlns="http://www.w3.org/2000/svg"
   xmlns:svg="http://www.w3.org/2000/svg">
  <sodipodi:namedview
     id="namedview7"
     pagecolor="#ffffff"
     bordercolor="#999999"
     borderopacity="1"
     inkscape:pageshadow="0"
     inkscape:pageopacity="0"
     inkscape:pagecheckerboard="0"
     inkscape:document-units="px"
     showgrid="false"
     units="px"
     width="630px"
     inkscape:zoom="0.74118967"
     inkscape:cx="382.49319"
     inkscape:cy="617.9255"
     inkscape:window-width="1920"
     inkscape:window-height="1012"
     inkscape:window-x="0"
     inkscape:window-y="0"
     inkscape:window-maximized="1"
     inkscape:current-layer="layer2" />
  <defs
     id="defs2">
    <rect
       x="77.204455"
       y="109.08626"
       width="484.90258"
       height="128.17627"
       id="rect2362" />
  </defs>
  <g
     inkscape:groupmode="layer"
     id="layer2"
     inkscape:label="border">
    <rect
       style="fill:#f6323e;fill-opacity:1;stroke:#010000;stroke-width:0;stroke-linecap:round;stroke-linejoin:round"
       id="rect912"
       width="166.68843"
       height="132.24905"
       x="0.063750438"
       y="0.33528131" />
  </g>
  <g
     inkscape:label="bg"
     inkscape:groupmode="layer"
     id="layer1">
    <rect
       style="fill:#00953a;fill-opacity:1;stroke:#010000;stroke-width:0;stroke-linecap:round;stroke-linejoin:round"
       id="rect866"
       width="156.84314"
       height="122.04831"
       x="5.2906084"
       y="5.3490601" />
  </g>
  <g
     inkscape:groupmode="layer"
     id="layer3"
     inkscape:label="words">
    <text
       xml:space="preserve"
       transform="matrix(0.81463054,0,0,0.81463054,-52.128246,-84.808371)"
       id="text2360"
       style="font-style:normal;font-variant:normal;font-weight:normal;font-stretch:normal;font-size:40px;line-height:1.25;font-family:Socake;-inkscape-font-specification:'Socake, Normal';font-variant-ligatures:normal;font-variant-caps:normal;font-variant-numeric:normal;font-variant-east-asian:normal;white-space:pre;shape-inside:url(#rect2362);fill:#ffecc1;fill-opacity:1;stroke:#d1a573;stroke-width:0.593921;stroke-miterlimit:4;stroke-dasharray:none;stroke-opacity:1"><tspan
         x="77.205078"
         y="147.73542"
         id="tspan1396">Making 
</tspan><tspan
         x="77.205078"
         y="197.73542"
         id="tspan1398">Pizza</tspan></text>
    <circle
       style="fill:#ffecc1;fill-opacity:1;stroke:#d1a573;stroke-width:3.66727;stroke-linecap:round;stroke-linejoin:round;stroke-miterlimit:4;stroke-dasharray:none;stroke-opacity:1"
       id="path1010"
       cx="117.28997"
       cy="80.808258"
       r="30.88035" />
    <circle
       style="fill:#f6323e;fill-opacity:1;stroke:none;stroke-width:3.65578;stroke-linecap:round;stroke-linejoin:round;stroke-miterlimit:4;stroke-dasharray:none;stroke-opacity:1"
       id="path1114"
       cx="111.76458"
       cy="62.03801"
       r="4.3935571" />
    <circle
       style="fill:#f6323e;fill-opacity:1;stroke:none;stroke-width:3.65578;stroke-linecap:round;stroke-linejoin:round;stroke-miterlimit:4;stroke-dasharray:none;stroke-opacity:1"
       id="path1114-8"
       cx="100.54159"
       cy="73.399124"
       r="4.3935571" />
    <circle
       style="fill:#f6323e;fill-opacity:1;stroke:none;stroke-width:3.65578;stroke-linecap:round;stroke-linejoin:round;stroke-miterlimit:4;stroke-dasharray:none;stroke-opacity:1"
       id="path1114-7"
       cx="119.34441"
       cy="99.683456"
       r="4.3935571" />
    <circle
       style="fill:#f6323e;fill-opacity:1;stroke:none;stroke-width:3.65578;stroke-linecap:round;stroke-linejoin:round;stroke-miterlimit:4;stroke-dasharray:none;stroke-opacity:1"
       id="path1114-9"
       cx="118.03475"
       cy="81.089905"
       r="4.3935571" />
    <circle
       style="fill:#f6323e;fill-opacity:1;stroke:none;stroke-width:3.65578;stroke-linecap:round;stroke-linejoin:round;stroke-miterlimit:4;stroke-dasharray:none;stroke-opacity:1"
       id="path1114-0"
       cx="127.16511"
       cy="63.687874"
       r="4.3935571" />
    <circle
       style="fill:#f6323e;fill-opacity:1;stroke:none;stroke-width:3.65578;stroke-linecap:round;stroke-linejoin:round;stroke-miterlimit:4;stroke-dasharray:none;stroke-opacity:1"
       id="path1114-3"
       cx="136.04753"
       cy="87.425209"
       r="4.3935571" />
    <circle
       style="fill:#f6323e;fill-opacity:1;stroke:none;stroke-width:3.65578;stroke-linecap:round;stroke-linejoin:round;stroke-miterlimit:4;stroke-dasharray:none;stroke-opacity:1"
       id="path1114-33"
       cx="99.82576"
       cy="90.664619"
       r="4.3935571" />
    <g
       style="overflow:hidden;fill:currentColor"
       id="g1344"
       transform="matrix(0.02963779,0,0,0.02963779,131.08725,4.1442675)">
      <path
         d="m 424.91904,108.29141 c -39.11339,8.69718 -77.80352,20.80086 -114.0736,39.05878 0.82944,32.03072 2.90133,62.72 7.09973,93.89738 -14.09024,9.02486 -28.89386,16.76971 -42.05226,27.33398 -13.37003,10.28437 -27.02336,20.12501 -39.12704,32.1536 -24.18347,-15.99488 -49.78006,-31.0272 -76.15147,-44.29483 -28.42283,30.58688 -54.99904,63.60405 -76.711253,100.54656 16.336213,26.42261 33.385813,51.18976 51.797333,74.69397 h 0.51541 v 226.75456 c 0.41643,0 0.82944,0.0171 1.23904,0.058 l 139.01483,13.40075 a 14.967467,14.967467 0 0 1 13.49291,13.86154 l 4.28714,61.36491 121.26208,8.6528 8.35243,-56.63744 a 14.967467,14.967467 0 0 1 14.81045,-12.78635 h 146.6607 a 14.967467,14.967467 0 0 1 14.80362,12.78635 l 8.35584,56.63744 121.25867,-8.6528 4.28373,-61.36491 a 14.974293,14.974293 0 0 1 13.49632,-13.85813 l 138.9568,-13.40416 c 0.4096,-0.041 0.8192,-0.0546 1.23563,-0.058 v -18.09408 l 0.058,-0.0171 V 431.69109 h 0.512 c 18.41834,-23.50421 35.4577,-48.27136 51.80074,-74.69397 -21.70538,-36.94592 -48.29866,-69.96309 -76.71808,-100.54997 -26.36117,13.27104 -51.968,28.29994 -76.15146,44.29824 -12.10027,-12.02859 -25.73312,-21.86923 -39.1168,-32.1536 -13.1584,-10.56427 -27.9791,-18.31254 -42.03862,-27.33739 4.18475,-31.17397 6.25323,-61.86325 7.0895,-93.89397 -36.28032,-18.26134 -74.96363,-30.36502 -114.09408,-39.05878 -15.62283,26.25878 -29.91104,54.69184 -42.35264,82.49003 -14.75584,-2.46443 -29.57995,-3.3792 -44.42454,-3.55669 v -0.0239 c -0.1024,0 -0.19797,0.0239 -0.28672,0.0239 -0.0922,0 -0.18773,-0.0239 -0.27989,-0.0239 v 0.0239 c -14.87189,0.17749 -29.68235,1.09226 -44.4416,3.55669 -12.43819,-27.79819 -26.71616,-56.23125 -42.35947,-82.49003 z m -109.9776,331.70432 c 46.27115,0 83.77344,37.47158 83.77344,83.72907 0,46.2848 -37.50229,83.78368 -83.77344,83.78368 -46.25067,0 -83.7632,-37.49888 -83.7632,-83.78368 0,-46.25408 37.51253,-83.72907 83.7632,-83.72907 z m 394.12736,0 c 46.24384,0 83.75296,37.47158 83.75296,83.72907 0,46.2848 -37.51253,83.78368 -83.75296,83.78368 -46.27797,0 -83.78368,-37.49888 -83.78368,-83.78368 0,-46.25408 37.50229,-83.72907 83.78368,-83.72907 z m -197.07221,48.9984 c 14.89237,0 26.98922,10.98752 26.98922,24.50774 v 77.12085 c 0,13.53045 -12.09685,24.50773 -26.98922,24.50773 -14.89238,0 -26.96534,-10.98069 -26.96534,-24.50773 v -77.12427 c 0,-13.5168 12.06955,-24.50432 26.96534,-24.50432 z"
         fill="#4fc3f7"
         id="path1332" />
      <path
         d="m 763.01312,700.47744 -4.30421,61.69259 a 14.974293,14.974293 0 0 1 -13.86838,13.88544 l -148.0704,10.56426 a 14.97088,14.97088 0 0 1 -15.872,-12.7488 L 572.40576,716.288 H 451.584 l -8.49237,57.58293 a 14.96064,14.96064 0 0 1 -15.872,12.75222 l -148.0704,-10.56768 a 14.97088,14.97088 0 0 1 -13.87179,-13.88544 l -4.3008,-61.68918 -124.99968,-12.05248 c 0.058,13.43488 0.22869,28.14976 0.22869,31.08182 0,132.01749 167.46838,195.46794 375.52811,196.1984 h 0.512 c 208.05973,-0.73387 375.46667,-64.18774 375.46667,-196.1984 0,-2.98326 0.18432,-17.64011 0.24576,-31.08182 z"
         fill="#4fc3f7"
         id="path1334" />
    </g>
  </g>
</svg>
